# xmcd
#
# Track frame offsets:
#	150
#	18954
#	48955
#	66141
#	82537
#	121310
#	141189
#	160564
#	181029
#	201639
#
# Disc length: 2989 seconds
# Revision: 3
# Processed by: cddbd v1.5.2PL0 Copyright (c) Steve Scherf et al.
# Submitted via: dBpowerAMP V12.0
#
DISCID=760bab0a
DTITLE=Various Artist - Time Has Come
DYEAR=2016
DGENRE=Blues
TTITLE0=Ben Poole feat. Todd Sharpville - Lying To Me
TTITLE1=Ben Poole feat. Aynsley Lister - I Think I Love You Too Much
TTITLE2=Ben Poole - Longing For A Woman
TTITLE3=Ben Poole - If You Want To Play With My Heart
TTITLE4=Ben Poole - Time Might Never Come
TTITLE5=Ben Poole - Stay At Mine
TTITLE6=Ben Poole - You've Changed
TTITLE7=Ben Poole feat. Henrik Freischlader - Just When You Thought It Was Safe
TTITLE8=Ben Poole - Whoever Invented Love
TTITLE9=Ben Poole - The Question Why
EXTD=
EXTT0=
EXTT1=
EXTT2=
EXTT3=
EXTT4=
EXTT5=
EXTT6=
EXTT7=
EXTT8=
EXTT9=
PLAYORDER=
